<svg width="150" height="47" viewBox="0 0 150 47" fill="none" xmlns="http://www.w3.org/2000/svg">
<rect x="0.90625" y="0.308594" width="148.65" height="46.686" rx="4.24419" fill="white"/>
<path d="M51.5449 33.7383H53.4497L54.0702 31.9056H58.1828L58.8322 33.7383H60.7225L56.9851 23.6371H55.2823L51.5449 33.7383ZM54.6185 30.3327L55.9461 26.5232L56.1193 25.4265H56.1626L56.3213 26.5232L57.6345 30.3327H54.6185ZM61.904 36.6243H63.5491V33.0601C64.0685 33.5651 64.8766 33.8826 65.7569 33.8826C67.5895 33.8826 69.2057 32.555 69.2057 30.1307C69.2057 27.7064 67.5462 26.3789 65.8579 26.3789C64.7612 26.3789 64.0252 26.8262 63.5491 27.3168V26.5232H61.904V36.6243ZM65.4827 32.4684C64.4293 32.4684 63.5491 31.6892 63.5491 30.6502V29.5968C63.5491 28.5578 64.4293 27.793 65.4827 27.793C66.6227 27.793 67.5462 28.5434 67.5462 30.1307C67.5462 31.718 66.6227 32.4684 65.4827 32.4684ZM70.6833 36.6243H72.3284V33.0601C72.8479 33.5651 73.656 33.8826 74.5362 33.8826C76.3688 33.8826 77.985 32.555 77.985 30.1307C77.985 27.7064 76.3256 26.3789 74.6372 26.3789C73.5405 26.3789 72.8046 26.8262 72.3284 27.3168V26.5232H70.6833V36.6243ZM74.262 32.4684C73.2086 32.4684 72.3284 31.6892 72.3284 30.6502V29.5968C72.3284 28.5578 73.2086 27.793 74.262 27.793C75.402 27.793 76.3256 28.5434 76.3256 30.1307C76.3256 31.718 75.402 32.4684 74.262 32.4684ZM86.0567 33.8826C88.1635 33.8826 89.8086 32.6272 89.8086 30.5925C89.8086 28.731 88.481 27.9085 86.6916 27.49C85.1188 27.1148 84.2674 26.8118 84.2674 25.9748C84.2674 25.3543 84.9023 24.9358 85.8258 24.9358C86.9225 24.9358 87.5719 25.4842 87.7018 26.4943L89.2891 26.4077L89.3612 26.3211C89.1736 24.6184 87.9326 23.4928 85.8403 23.4928C83.9643 23.4928 82.5357 24.4741 82.5357 26.0758C82.5357 27.6776 83.82 28.3847 85.5517 28.7887C87.1534 29.1495 88.0192 29.5391 88.0192 30.6935C88.0192 31.7758 87.1823 32.3241 86.1144 32.3241C84.96 32.3241 84.0221 31.6603 83.9066 30.4049L82.2183 30.5636L82.1606 30.6358C82.3193 32.6127 83.9932 33.8826 86.0567 33.8826ZM93.9008 33.8826C94.3914 33.8826 94.6945 33.8393 95.1129 33.7383V32.4251L95.0696 32.3963C94.8388 32.454 94.6656 32.4829 94.3914 32.4829C93.8431 32.4829 93.5689 32.2087 93.5689 31.7325V27.9373H95.1851V26.5232H93.5689V24.9358L92.0393 24.4019H91.9094V26.5232H90.5674V27.9373H91.9094V31.8768C91.9094 33.2332 92.7175 33.8826 93.9008 33.8826ZM99.9206 33.8826C102.172 33.8826 103.73 32.2808 103.73 30.1307C103.73 27.9806 102.172 26.3789 99.9206 26.3789C97.655 26.3789 96.0966 27.9806 96.0966 30.1307C96.0966 32.2808 97.655 33.8826 99.9206 33.8826ZM99.9206 32.4251C98.694 32.4251 97.7416 31.6026 97.7416 30.1307C97.7416 28.6588 98.694 27.8363 99.9206 27.8363C101.147 27.8363 102.085 28.6588 102.085 30.1307C102.085 31.6026 101.147 32.4251 99.9206 32.4251ZM105.209 33.7383H106.854V29.1639C107.301 28.2837 108.008 27.8219 108.802 27.8219C109.033 27.8219 109.163 27.8363 109.278 27.8652L109.336 27.8219L109.552 26.4943C109.408 26.4222 109.192 26.3789 108.932 26.3789C108.037 26.3789 107.344 26.8551 106.854 27.4178V26.5232H105.209V33.7383ZM113.754 33.8826C115.514 33.8826 116.698 32.9879 117.159 31.3717L117.116 31.2996L115.673 31.213C115.413 31.9778 114.807 32.4829 113.783 32.4829C112.628 32.4829 111.82 31.7613 111.748 30.5781H117.275V30.073C117.275 27.7497 115.803 26.3789 113.754 26.3789C111.835 26.3789 110.146 27.8796 110.146 30.1307C110.146 32.3818 111.589 33.8826 113.754 33.8826ZM111.777 29.3804C111.979 28.3269 112.773 27.7209 113.754 27.7209C114.793 27.7209 115.615 28.3125 115.716 29.3804H111.777Z" fill="#1D293F"/>
<path d="M50.1801 17.7031H51.8948C53.8386 17.7031 55.0015 16.5232 55.0015 14.7322C55.0015 12.9411 53.8386 11.7613 51.8948 11.7613H50.1801V17.7031ZM50.995 16.9561V12.5082H51.8608C53.2444 12.5082 54.1866 13.1703 54.1866 14.7322C54.1866 16.2941 53.2444 16.9561 51.8608 16.9561H50.995ZM57.951 17.788C59.2498 17.788 60.1325 16.8458 60.1325 15.581C60.1325 14.3163 59.2498 13.3741 57.951 13.3741C56.6523 13.3741 55.7695 14.3163 55.7695 15.581C55.7695 16.8458 56.6523 17.788 57.951 17.788ZM57.951 17.1089C57.1446 17.1089 56.5165 16.5827 56.5165 15.581C56.5165 14.5794 57.1446 14.0531 57.951 14.0531C58.7574 14.0531 59.3856 14.5794 59.3856 15.581C59.3856 16.5827 58.7574 17.1089 57.951 17.1089ZM61.8139 17.7031H62.6458L63.571 14.3248L64.5047 17.7031H65.3366L66.6098 13.4589H65.8204L65.0225 16.2007L64.9037 16.9561L64.7594 16.2007L63.953 13.4589H63.1975L62.3826 16.2007L62.2468 16.9561L62.128 16.2007L61.3301 13.4589H60.5406L61.8139 17.7031ZM67.355 17.7031H68.102V14.851C68.4161 14.3927 68.8575 14.0361 69.3753 14.0361C69.9355 14.0361 70.2411 14.3502 70.2411 14.9105V17.7031H70.988V14.7746C70.988 13.9173 70.4957 13.3741 69.5875 13.3741C68.9593 13.3741 68.3991 13.6966 68.102 14.0107V13.4589H67.355V17.7031ZM72.0717 17.7031H72.8187V11.5066H72.0717V17.7031ZM75.8976 17.788C77.1964 17.788 78.0792 16.8458 78.0792 15.581C78.0792 14.3163 77.1964 13.3741 75.8976 13.3741C74.5989 13.3741 73.7161 14.3163 73.7161 15.581C73.7161 16.8458 74.5989 17.788 75.8976 17.788ZM75.8976 17.1089C75.0912 17.1089 74.4631 16.5827 74.4631 15.581C74.4631 14.5794 75.0912 14.0531 75.8976 14.0531C76.704 14.0531 77.3322 14.5794 77.3322 15.581C77.3322 16.5827 76.704 17.1089 75.8976 17.1089ZM80.1227 17.788C80.7169 17.788 81.2687 17.4145 81.5573 17.092C81.6761 17.6013 82.0241 17.7541 82.3976 17.7541C82.5334 17.7541 82.6692 17.7371 82.873 17.6692V17.1089C82.7881 17.1344 82.7202 17.1429 82.6523 17.1429C82.3976 17.1429 82.2788 16.9731 82.2788 16.7015V14.7152C82.2788 13.9088 81.6337 13.3741 80.6405 13.3741C79.8766 13.3741 79.0956 13.79 78.9598 14.7407H79.6644C79.7832 14.2568 80.1397 14.0531 80.5896 14.0531C81.1328 14.0531 81.5318 14.2908 81.5318 14.8001V15.0887L80.2076 15.2245C79.4437 15.3009 78.7731 15.7253 78.7731 16.5572C78.7731 17.3127 79.3248 17.788 80.1227 17.788ZM80.2076 17.1089C79.8171 17.1089 79.5201 16.9222 79.5201 16.5232C79.5201 16.1837 79.7577 15.8866 80.2585 15.8272L81.5318 15.6829V16.4468C81.1583 16.8203 80.7254 17.1089 80.2076 17.1089ZM85.1679 17.788C85.8215 17.788 86.2714 17.4994 86.5176 17.2363V17.7031H87.2646V11.5066H86.5176V13.9088C86.195 13.5693 85.6942 13.3741 85.151 13.3741C84.039 13.3741 83.2241 14.2229 83.2241 15.581C83.2241 16.9392 84.1239 17.788 85.1679 17.788ZM85.2868 17.1089C84.5737 17.1089 83.9711 16.6506 83.9711 15.581C83.9711 14.5115 84.5737 14.0531 85.2868 14.0531C85.9574 14.0531 86.5176 14.5794 86.5176 15.1821V15.997C86.5176 16.5996 85.9574 17.1089 85.2868 17.1089ZM92.1283 17.788C93.4271 17.788 94.3098 16.8458 94.3098 15.581C94.3098 14.3163 93.4271 13.3741 92.1283 13.3741C90.8296 13.3741 89.9468 14.3163 89.9468 15.581C89.9468 16.8458 90.8296 17.788 92.1283 17.788ZM92.1283 17.1089C91.3219 17.1089 90.6938 16.5827 90.6938 15.581C90.6938 14.5794 91.3219 14.0531 92.1283 14.0531C92.9347 14.0531 93.5629 14.5794 93.5629 15.581C93.5629 16.5827 92.9347 17.1089 92.1283 17.1089ZM95.2075 17.7031H95.9545V14.851C96.2685 14.3927 96.7099 14.0361 97.2277 14.0361C97.788 14.0361 98.0935 14.3502 98.0935 14.9105V17.7031H98.8405V14.7746C98.8405 13.9173 98.3482 13.3741 97.4399 13.3741C96.8118 13.3741 96.2516 13.6966 95.9545 14.0107V13.4589H95.2075V17.7031ZM103.234 17.788C103.523 17.788 103.684 17.7625 103.913 17.7031V17.075C103.761 17.1005 103.659 17.1259 103.463 17.1259C103.098 17.1259 102.937 16.9477 102.937 16.6675V14.138H103.956V13.4589H102.937V12.4573L102.19 12.1857V13.4589H101.35V14.138H102.19V16.7185C102.19 17.423 102.589 17.788 103.234 17.788ZM104.823 17.7031H105.57V14.8001C105.884 14.3587 106.394 14.0361 106.894 14.0361C107.446 14.0361 107.811 14.3502 107.811 14.9105V17.7031H108.558V14.7746C108.558 13.9173 108.015 13.3741 107.107 13.3741C106.453 13.3741 105.867 13.6966 105.57 14.0107V11.5066H104.823V17.7031ZM111.498 17.788C112.542 17.788 113.221 17.1938 113.45 16.2516H112.754C112.602 16.7609 112.169 17.1089 111.507 17.1089C110.743 17.1089 110.208 16.6336 110.182 15.8187H113.493V15.5301C113.493 14.1635 112.636 13.3741 111.498 13.3741C110.386 13.3741 109.427 14.2568 109.427 15.581C109.427 16.9052 110.208 17.788 111.498 17.788ZM110.191 15.1736C110.31 14.4606 110.836 14.0531 111.498 14.0531C112.16 14.0531 112.729 14.4266 112.788 15.1736H110.191Z" fill="#002931"/>
<path fill-rule="evenodd" clip-rule="evenodd" d="M35.1143 28.5098C34.638 29.5675 34.4107 30.0395 33.7974 30.974C32.9431 32.2789 31.7376 33.9042 30.2438 33.918C28.9169 33.9304 28.5759 33.0521 26.7746 33.0626C24.9733 33.0732 24.5979 33.9337 23.271 33.9213C21.7772 33.9079 20.6359 32.4403 19.7807 31.1344C17.3899 27.4848 17.1401 23.2022 18.6146 20.9256C19.6624 19.3067 21.3161 18.3608 22.8704 18.3608C24.4531 18.3608 25.4481 19.2309 26.7572 19.2309C28.0268 19.2309 28.8 18.3594 30.6302 18.3594C32.0135 18.3594 33.4793 19.1146 34.5239 20.4195C31.1014 22.2999 31.6578 27.1993 35.1143 28.5098V28.5098Z" fill="#005F71"/>
<path fill-rule="evenodd" clip-rule="evenodd" d="M29.6976 16.1173C30.3877 15.2456 30.9108 14.0158 30.7206 12.7578C29.5934 12.8337 28.276 13.5396 27.5065 14.4596C26.8079 15.2943 26.231 16.5326 26.4555 17.7362C27.6849 17.7741 28.958 17.0508 29.6976 16.1173V16.1173Z" fill="#005F71"/>
</svg>
