<svg width="143" height="33" viewBox="0 0 143 33" fill="none" xmlns="http://www.w3.org/2000/svg">
<path d="M40.5391 8.04688C33.8279 8.04688 28.375 13.4848 28.375 20.1776C28.375 26.8704 33.8279 32.3083 40.5391 32.3083C47.2503 32.3083 52.7031 26.8704 52.7031 20.1776C52.7031 13.5038 47.2312 8.04688 40.5391 8.04688ZM40.5391 27.2317C36.6496 27.2317 33.4656 24.0754 33.4656 20.1776C33.4656 16.2988 36.6305 13.1235 40.5391 13.1235C44.4285 13.1235 47.6125 16.2798 47.6125 20.1776C47.5935 24.0754 44.4285 27.2317 40.5391 27.2317Z" fill="white"/>
<path d="M142.39 0.308594H138.253C137.967 0.308594 137.738 0.536758 137.738 0.821963V31.3009C137.738 31.5861 137.967 31.8142 138.253 31.8142H142.39C142.676 31.8142 142.905 31.5861 142.905 31.3009V0.821963C142.924 0.536758 142.676 0.308594 142.39 0.308594Z" fill="white"/>
<path d="M131.543 0.308594H127.405C127.119 0.308594 126.891 0.536758 126.891 0.821963V31.3009C126.891 31.5861 127.119 31.8142 127.405 31.8142H131.543C131.829 31.8142 132.058 31.5861 132.058 31.3009V0.821963C132.058 0.536758 131.829 0.308594 131.543 0.308594Z" fill="white"/>
<path d="M120.696 8.56137H116.559C116.273 8.56137 116.044 8.78953 116.044 9.07473V10.5198C113.966 8.94164 111.373 8.00997 108.57 8.048C102.221 8.12405 96.8826 13.2387 96.5776 19.5513C96.2344 26.5103 101.802 32.2904 108.723 32.2904C111.487 32.2904 114.023 31.3588 116.063 29.8186V31.2827C116.063 31.5679 116.292 31.7961 116.578 31.7961H120.715C121.001 31.7961 121.23 31.5679 121.23 31.2827V9.07473C121.211 8.78953 120.982 8.56137 120.696 8.56137ZM115.663 21.3766C115.186 24.2857 112.822 26.6434 109.905 27.1187C105.081 27.9173 100.944 23.7913 101.744 18.9809C102.221 16.0718 104.585 13.7141 107.502 13.2387C112.326 12.4402 116.463 16.5661 115.663 21.3766Z" fill="white"/>
<path d="M68.0156 13.1425C69.4646 13.1425 70.8183 13.5799 71.9432 14.3404C71.9432 14.3404 71.9432 14.3404 71.9623 14.3404C72.0195 14.3784 72.0576 14.4165 72.1148 14.4545C72.5152 14.7017 72.9918 14.8538 73.4875 14.8538C74.8984 14.8538 76.0424 13.7129 76.0424 12.3059C76.0424 11.5264 75.6801 10.8039 75.1081 10.3475C75.1081 10.3475 75.0891 10.3475 75.0891 10.3285C75.0128 10.2715 74.9365 10.2144 74.8603 10.1574C72.9156 8.82644 70.5514 8.04688 68.0156 8.04688C61.3044 8.04688 55.8516 13.4848 55.8516 20.1776C55.8516 26.8704 61.3044 32.3083 68.0156 32.3083C70.5323 32.3083 72.8584 31.5478 74.8031 30.2358H74.8222C74.9175 30.1598 75.0319 30.1027 75.1081 30.0267C75.6801 29.5513 76.0233 28.8478 76.0233 28.0683C76.0233 26.6613 74.8794 25.5204 73.4685 25.5204C72.9346 25.5204 72.458 25.6725 72.0385 25.9577C72.0004 25.9768 71.9623 26.0148 71.9432 26.0338C70.8183 26.7944 69.4646 27.2317 67.9966 27.2317C64.088 27.2317 60.9231 24.0754 60.9231 20.1776C60.9612 16.2988 64.1262 13.1425 68.0156 13.1425Z" fill="white"/>
<path d="M25.2304 0.821963C25.2304 0.536758 25.0016 0.308594 24.7156 0.308594H20.5783C20.2923 0.308594 20.0635 0.536758 20.0635 0.821963V10.2718C17.9853 8.8077 15.4495 7.9711 12.704 8.06617C6.43136 8.25631 1.22636 13.3139 0.921309 19.5504C0.578122 26.5284 6.14537 32.3086 13.0663 32.3086C14.3437 32.3086 15.6021 32.0994 16.7651 31.7382C16.9367 31.7002 17.0892 31.6431 17.2417 31.5671C17.2417 31.5671 17.2417 31.5671 17.2608 31.5671C18.1188 31.1488 18.7289 30.2931 18.7289 29.2664C18.7289 27.8594 17.5849 26.7186 16.174 26.7186C15.9453 26.7186 15.7165 26.7566 15.5067 26.8136H15.4877C15.3923 26.8517 15.2779 26.8897 15.1826 26.9087H15.1635C14.3818 27.1559 13.5429 27.251 12.685 27.2129C9.08152 27.0038 6.1263 23.9996 6.01191 20.387C5.89751 16.4132 9.10059 13.1238 13.0663 13.1238C16.6126 13.1238 19.5487 15.7477 20.0444 19.1511V19.1701C20.0826 19.4934 20.1207 19.8166 20.1207 20.1589C20.1207 20.1589 20.1207 20.1589 20.1207 20.1779C20.1207 20.7483 20.0444 21.2997 19.93 21.8321C19.911 21.9271 19.8728 22.0412 19.8538 22.1363C19.8347 22.1743 19.7966 22.4025 19.7775 22.4595V22.4785C19.6631 23.7144 20.4639 24.8933 21.6841 25.1975C23.0187 25.5207 24.258 24.7982 24.7156 23.6764C24.7918 23.5053 24.9253 22.8778 24.9444 22.7637C25.135 21.9271 25.2304 21.0715 25.2304 20.1969C25.2304 20.1779 25.2304 20.1589 25.2304 20.1589V0.821963Z" fill="white"/>
<path d="M92.5878 26.6996C92.1875 26.6805 91.8061 26.7566 91.463 26.8897L91.3104 26.9657C90.8719 27.1369 90.3762 27.2129 89.8424 27.1179C88.5268 26.8897 87.5926 25.6728 87.5926 24.3419V13.1428H94.1322C94.4182 13.1428 94.647 12.9147 94.647 12.6294V9.07389C94.647 8.78869 94.4182 8.56052 94.1322 8.56052H87.5926V0.821963C87.5926 0.536758 87.3638 0.308594 87.0778 0.308594H82.9405C82.6545 0.308594 82.4257 0.536758 82.4257 0.821963V8.54151H78.9367C78.6507 8.54151 78.4219 8.76967 78.4219 9.05488V12.6104C78.4219 12.8956 78.6507 13.1238 78.9367 13.1238H82.4257V24.1898C82.4257 28.5249 85.8576 32.2325 90.2046 32.2896C91.2532 32.3086 92.2637 32.1185 93.1789 31.7572C93.198 31.7572 93.2552 31.7192 93.2742 31.7192C93.4077 31.6621 93.5221 31.6051 93.6555 31.548C93.6746 31.529 93.789 31.472 93.8081 31.472C94.6851 30.9586 95.2189 29.9319 95.0283 28.7911C94.8186 27.6693 93.7699 26.7566 92.5878 26.6996Z" fill="white"/>
</svg>
