<svg width="121" height="28" viewBox="0 0 121 28" fill="none" xmlns="http://www.w3.org/2000/svg">
<path d="M34.3955 6.70117C28.7561 6.70117 24.1367 11.3206 24.1367 16.9599C24.1367 22.5992 28.7561 27.2186 34.3955 27.2186C40.0348 27.2186 44.6542 22.5992 44.6542 16.9599C44.6542 11.3206 40.0948 6.70117 34.3955 6.70117ZM34.3955 22.9592C31.0959 22.9592 28.4562 20.2595 28.4562 17.0199C28.4562 13.7203 31.1559 11.0806 34.3955 11.0806C37.695 11.0806 40.3347 13.7803 40.3347 17.0199C40.3947 20.3195 37.695 22.9592 34.3955 22.9592Z" fill="#00839B"/>
<path d="M120.485 0.162109H117.006C116.766 0.162109 116.586 0.342087 116.586 0.582058V26.3789C116.586 26.6188 116.766 26.7988 117.006 26.7988H120.485C120.725 26.7988 120.905 26.6188 120.905 26.3789V0.582058C120.905 0.342087 120.725 0.162109 120.485 0.162109Z" fill="#00839B"/>
<path d="M111.306 0.162109H107.826C107.586 0.162109 107.406 0.342087 107.406 0.582058V26.3789C107.406 26.6188 107.586 26.7988 107.826 26.7988H111.306C111.546 26.7988 111.726 26.6188 111.726 26.3789V0.582058C111.726 0.342087 111.546 0.162109 111.306 0.162109Z" fill="#00839B"/>
<path d="M102.128 7.18069H98.6488C98.4088 7.18069 98.2288 7.36067 98.2288 7.60064V8.86048C96.489 7.54065 94.2693 6.76074 91.9296 6.76074C86.5902 6.82073 82.0308 11.1402 81.7908 16.4795C81.4909 22.3588 86.2303 27.2782 92.0496 27.2782C94.3893 27.2782 96.549 26.4983 98.2288 25.1785V26.4383C98.2288 26.6783 98.4088 26.8583 98.6488 26.8583H102.128C102.368 26.8583 102.548 26.6783 102.548 26.4383V7.60064C102.548 7.36067 102.368 7.18069 102.128 7.18069ZM97.8689 18.0394C97.4489 20.499 95.4692 22.4788 93.0095 22.8988C88.93 23.5587 85.4504 20.0791 86.1103 15.9996C86.5303 13.5399 88.51 11.5602 90.9697 11.1402C95.0492 10.4203 98.5288 13.9599 97.8689 18.0394Z" fill="#00839B"/>
<path d="M57.6142 11.0202C58.874 11.0202 60.0139 11.3802 60.9138 12.0401C60.9738 12.1001 60.9738 12.1001 61.0338 12.1601C61.3937 12.4 61.7537 12.52 62.1736 12.52C63.3735 12.52 64.3334 11.5602 64.3334 10.3603C64.3334 9.70038 64.0334 9.10045 63.5535 8.68051C63.4935 8.62051 63.4335 8.56052 63.3735 8.56052C61.7537 7.42066 59.7139 6.76074 57.6142 6.76074C51.9749 6.76074 47.3555 11.3802 47.3555 17.0195C47.3555 22.6588 51.9749 27.2782 57.6142 27.2782C59.7139 27.2782 61.6937 26.6183 63.3735 25.5384C63.4335 25.4784 63.5535 25.4184 63.6135 25.3584C64.0934 24.9385 64.3934 24.3386 64.3934 23.6787C64.3934 22.4788 63.4335 21.5189 62.2336 21.5189C61.8137 21.5189 61.3937 21.6389 61.0338 21.8789L60.9738 21.9389C60.0139 22.5988 58.874 22.9587 57.6142 22.9587C54.3146 22.9587 51.6149 20.2591 51.6149 16.9595C51.6749 13.7199 54.3146 11.0202 57.6142 11.0202Z" fill="#00839B"/>
<path d="M21.4372 0.582058C21.4372 0.342087 21.2572 0.162109 21.0173 0.162109H17.5377C17.2977 0.162109 17.1178 0.342087 17.1178 0.582058V8.56107C15.318 7.36122 13.2182 6.64131 10.8785 6.7613C5.59917 6.88128 1.21971 11.2007 0.919747 16.4801C0.619784 22.3594 5.3592 27.2788 11.1785 27.2788C12.2583 27.2788 13.3382 27.0988 14.2981 26.7988C14.4181 26.7388 14.5981 26.7388 14.718 26.6788C15.438 26.3189 15.9779 25.599 15.9779 24.6991C15.9779 23.4992 15.018 22.5394 13.8182 22.5394C13.6382 22.5394 13.4582 22.5394 13.2782 22.5993C13.2182 22.6593 13.0982 22.6593 13.0383 22.6593C12.3783 22.8393 11.6584 22.9593 10.9385 22.8993C7.87889 22.7193 5.41919 20.1996 5.29921 17.14C5.17922 13.7804 7.93888 11.0208 11.2385 11.0208C14.2381 11.0208 16.6978 13.2405 17.1178 16.1201C17.1777 16.4201 17.1777 16.6601 17.1777 16.96C17.1777 17.44 17.1177 17.9199 16.9978 18.3399C16.9978 18.3999 16.9378 18.5198 16.9378 18.5798C16.9378 18.6398 16.8778 18.8198 16.8778 18.8798C16.7578 19.8997 17.4777 20.9195 18.4976 21.1595C19.6374 21.4595 20.6573 20.7996 21.0773 19.8397C21.1373 19.7197 21.2572 19.1798 21.2572 19.0598C21.4372 18.3399 21.4972 17.62 21.4972 16.9C21.4972 16.9 21.4972 16.9 21.4972 16.8401V0.582058H21.4372Z" fill="#00839B"/>
<path d="M78.3721 22.5394C78.0122 22.5394 77.7122 22.5993 77.4122 22.7193L77.2923 22.7793C76.9323 22.9593 76.5123 22.9593 76.0324 22.8993C74.8925 22.7193 74.1126 21.6995 74.1126 20.5596V11.0208H79.632C79.8719 11.0208 80.0519 10.8408 80.0519 10.6008V7.60119C80.0519 7.36122 79.8719 7.18124 79.632 7.18124H74.1126V0.582058C74.1126 0.342087 73.9327 0.162109 73.6927 0.162109H70.2131C69.9732 0.162109 69.7932 0.342087 69.7932 0.582058V7.12125H66.8535C66.6136 7.12125 66.4336 7.30123 66.4336 7.5412V10.5408C66.4336 10.7808 66.6136 10.9608 66.8535 10.9608H69.7932V20.3196C69.7932 23.9792 72.6728 27.1588 76.3924 27.1588C77.2923 27.1588 78.1322 27.0388 78.9121 26.6788C78.9121 26.6788 78.9721 26.6788 78.9721 26.6188C79.092 26.5589 79.212 26.4989 79.272 26.4989L79.392 26.4389C80.1119 26.0189 80.5918 25.119 80.4119 24.1592C80.2919 23.3193 79.392 22.5993 78.3721 22.5394Z" fill="#00839B"/>
</svg>
