<svg width="40" height="40" viewBox="0 0 40 40" fill="none" xmlns="http://www.w3.org/2000/svg">
<path d="M32.772 15.2944H29.4112C28.2992 15.2944 27.3944 16.1988 27.3944 17.3108V18.6556C27.3944 19.0268 27.6952 19.3276 28.0664 19.3276V24.0332V30.4192C28.0664 32.0872 29.4232 33.4444 31.0916 33.4444C32.76 33.4444 34.1168 32.0876 34.1168 30.4192V24.0332V19.3276C34.4884 19.3276 34.7892 19.0268 34.7892 18.6556V17.3108C34.7888 16.1988 33.8844 15.2944 32.772 15.2944ZM32.772 30.4196C32.772 31.3464 32.0184 32.1 31.0916 32.1C30.1648 32.1 29.4112 31.346 29.4112 30.4196V24.7056H32.772V30.4196ZM32.772 23.3612H29.4112V19.3276H32.772V23.3612ZM28.7388 17.3112C28.7388 16.9408 29.0404 16.6392 29.4112 16.6392H32.772C33.1428 16.6392 33.4444 16.9408 33.4444 17.3112V17.9836H28.7388V17.3112ZM26.05 32.1H25.5664L26.0296 30.2464C26.08 30.0456 26.0348 29.8328 25.9076 29.6696C25.7804 29.5064 25.5848 29.4108 25.378 29.4108H20.4156L21.0876 28.0664H25.3776C25.7492 28.0664 26.05 27.7656 26.05 27.3944C26.05 27.0232 25.7492 26.722 25.3776 26.722H20.672C20.4176 26.722 20.1848 26.866 20.0708 27.0936L18.912 29.4108H15.96C16.384 28.8484 16.6388 28.1512 16.6388 27.3944C16.6388 25.5912 15.21 24.1192 13.426 24.0408C13.1224 23.9072 11.9332 23.2668 11.9332 21.4288C11.9332 17.6716 16.6424 15.176 18.6556 14.2808V15.9668C18.6556 16.338 18.956 16.6392 19.3276 16.6392V18.656C19.3276 19.0272 19.6284 19.328 20 19.328V21.3448C20 21.716 20.3008 22.0168 20.672 22.0168H23.3612C23.7328 22.0168 24.0332 21.716 24.0332 21.3448V19.328C24.4048 19.328 24.7056 19.0272 24.7056 18.656V16.6392C25.0772 16.6392 25.3776 16.3384 25.3776 15.9668V10.5888V7.89999C25.3776 7.52879 25.0772 7.22759 24.7056 7.22759H24.0332V4.53879C24.0332 4.16759 23.7328 3.86639 23.3612 3.86639H20.672C20.3004 3.86639 20 4.16719 20 4.53879V7.22759H19.3276C18.956 7.22759 18.6556 7.52839 18.6556 7.89999V9.24439C17.7956 9.24439 17.044 9.70959 16.6332 10.4004C14.7216 11.2136 10.834 13.1212 8.29482 16.0844C8.06442 16.0088 7.81882 15.9664 7.56362 15.9664C6.26642 15.9664 5.21082 17.022 5.21082 18.3192C5.21082 19.0656 5.56162 19.7308 6.10562 20.162C5.96242 20.7552 5.88322 21.3728 5.88322 22.016C5.88322 27.098 8.40082 29.326 9.93242 30.212C9.93481 30.2232 9.93401 30.2348 9.93681 30.2456L10.4 32.0992H9.91642C9.54522 32.0992 9.24442 32.4 9.24442 32.7712V35.46C9.24442 35.8312 9.54522 36.1324 9.91642 36.1324H26.05C26.4216 36.1324 26.722 35.8316 26.722 35.46V32.772C26.722 32.4012 26.4216 32.1 26.05 32.1ZM6.55562 18.3196C6.55562 17.8348 6.89922 17.4296 7.35562 17.3332C7.42282 17.3192 7.49242 17.3108 7.56362 17.3108C7.75642 17.3108 7.93442 17.368 8.08802 17.462C8.29441 17.5888 8.44922 17.7864 8.52242 18.022C8.55202 18.1164 8.57202 18.2152 8.57202 18.3192C8.57202 18.7844 8.25402 19.1728 7.82522 19.2888C7.74162 19.3116 7.65482 19.3276 7.56402 19.3276C7.40442 19.3276 7.25482 19.2868 7.12042 19.2204C6.89042 19.1064 6.71082 18.9092 6.62082 18.6664C6.58082 18.558 6.55562 18.442 6.55562 18.3196ZM7.37762 20.6628C7.43922 20.6676 7.50122 20.6724 7.56402 20.6724C8.86122 20.6724 9.91682 19.6168 9.91682 18.3196C9.91682 17.7724 9.72762 17.2696 9.41322 16.8696C11.4408 14.5624 14.4236 12.9132 16.342 12.014C16.4476 12.6008 16.7708 13.1112 17.2256 13.4612C14.714 14.7092 10.5892 17.3756 10.5892 21.4288C10.5892 21.4872 10.5932 21.5416 10.5948 21.5984L9.61642 22.088C9.28402 22.254 9.14962 22.6576 9.31562 22.99C9.43362 23.2256 9.67082 23.3612 9.91762 23.3612C10.0188 23.3612 10.1212 23.3384 10.2176 23.2904L10.8324 22.9832C11.0428 23.6048 11.3644 24.0776 11.7008 24.4288C10.6408 24.9948 9.91682 26.1116 9.91682 27.3952C9.91682 27.898 10.0312 28.3736 10.23 28.8028C8.98362 27.9336 7.22802 26.002 7.22802 22.0172C7.22762 21.5512 7.28322 21.1008 7.37762 20.6628ZM18.6556 10.5888C18.684 10.5888 18.7112 10.5948 18.7392 10.5972C18.9648 10.616 19.1688 10.7076 19.3276 10.8512C19.5324 11.0356 19.6636 11.3004 19.6636 11.5972C19.6636 11.7944 19.6048 11.9768 19.5064 12.1324C19.4568 12.2112 19.396 12.2812 19.3272 12.3432C19.2232 12.4368 19.1008 12.5076 18.9648 12.552C18.8668 12.584 18.764 12.6056 18.6552 12.6056C18.4808 12.6056 18.3196 12.5568 18.1764 12.4792C17.8624 12.308 17.6468 11.9792 17.6468 11.5972C17.6468 11.5468 17.6544 11.4984 17.6616 11.45C17.7028 11.1716 17.8556 10.9304 18.0756 10.7748C18.2404 10.6584 18.4396 10.5888 18.6556 10.5888ZM20 8.57239H20.672H23.3612H24.0332V9.91679H22.6888C22.3172 9.91679 22.0164 10.2176 22.0164 10.5892C22.0164 10.9604 22.3172 11.2612 22.6888 11.2612H24.0332V15.2948H20V13.5256C20.6084 13.0996 21.0084 12.3948 21.0084 11.5976C21.0084 10.8004 20.6088 10.0956 20 9.66959V8.57239ZM21.3444 5.21119H22.6888V7.22799H21.3444V5.21119ZM22.6888 20.6724H21.3444V19.328H22.6888V20.6724ZM23.3612 17.9832H20.672V16.6388H23.3612V17.9832ZM13.2776 29.4112C12.932 29.4112 12.6064 29.3236 12.3216 29.1696C12.112 29.0564 11.926 28.9056 11.7688 28.7284C11.5736 28.5076 11.4256 28.2448 11.3412 27.954C11.2896 27.776 11.2608 27.5888 11.2608 27.3944C11.2608 26.6844 11.6304 26.06 12.1864 25.7008C12.4324 25.5416 12.7148 25.4356 13.0184 25.396C13.1032 25.3852 13.1892 25.3776 13.2772 25.3776C13.4308 25.3776 13.58 25.3964 13.724 25.4292C14.6216 25.6332 15.294 26.436 15.294 27.3944C15.2944 28.5068 14.3896 29.4112 13.2776 29.4112ZM11.45 30.7556H13.2776H19.3268H24.516L24.18 32.1H11.7864L11.45 30.7556ZM10.5888 33.4444H11.2612H24.7056H25.3776V34.7888H10.5888V33.4444Z" fill="#002931"/>
</svg>
