<svg width="49" height="67" viewBox="0 0 49 67" fill="none" xmlns="http://www.w3.org/2000/svg">
<path d="M19.9932 33.5L24.4972 38.0031L39.2263 23.2771" stroke="white" stroke-width="2" stroke-linecap="round" stroke-linejoin="round"/>
<path d="M19.1105 43.3886L2.33715 60.1583C2.09968 59.4389 1.9788 58.6862 1.979 57.9286V9.05956C1.97953 7.17926 2.72698 5.37616 4.05701 4.04677C5.38705 2.71739 7.19072 1.97058 9.07141 1.97058H38.5098C40.7666 1.97058 42.931 2.86691 44.5268 4.46239C46.1227 6.05787 47.0191 8.2218 47.0191 10.4781V57.9305C47.0191 59.8108 46.2722 61.6141 44.9425 62.9439C43.6129 64.2737 41.8094 65.021 39.9287 65.0215H9.0576" stroke="white" stroke-width="2" stroke-linecap="round" stroke-linejoin="round"/>
<path d="M35.4048 36.3114C35.2549 36.8897 35.0597 37.4554 34.8211 38.0031V38.0031C33.9297 40.0419 32.4538 41.7709 30.58 42.9714C28.7061 44.1719 26.5183 44.79 24.2931 44.7477C22.0679 44.7054 19.9052 44.0045 18.0783 42.7337C16.2514 41.4628 14.8423 39.679 14.0292 37.6077C13.216 35.5364 13.0353 33.2706 13.5098 31.0967C13.9843 28.9227 15.0928 26.9382 16.6951 25.3939C18.2974 23.8496 20.3217 22.8149 22.512 22.4205C24.7024 22.0261 26.9605 22.2898 29.001 23.1781" stroke="white" stroke-width="2" stroke-linecap="round" stroke-linejoin="round"/>
<path d="M21.4595 8.72125H27.5367" stroke="white" stroke-width="2" stroke-linecap="round" stroke-linejoin="round"/>
</svg>
