<svg width="50" height="56" viewBox="0 0 50 56" fill="none" xmlns="http://www.w3.org/2000/svg">
<path d="M24.9999 25.087C31.4164 25.087 36.618 19.8768 36.618 13.4496C36.618 7.0224 31.4164 1.81213 24.9999 1.81213C18.5834 1.81213 13.3818 7.0224 13.3818 13.4496C13.3818 19.8768 18.5834 25.087 24.9999 25.087Z" stroke="#013C44" stroke-width="4" stroke-linecap="round" stroke-linejoin="round"/>
<path d="M46.7905 47.686C47.5655 49.7754 48.04 51.9646 48.1998 54.1879" stroke="#013C44" stroke-width="4" stroke-linecap="round" stroke-linejoin="round"/>
<path d="M1.80908 54.1879C2.71363 41.3635 13.8324 31.694 26.6336 32.611C29.7905 32.8349 32.8684 33.7029 35.6782 35.1616C38.4881 36.6203 40.9706 38.6389 42.9734 41.0935" stroke="#013C44" stroke-width="4" stroke-linecap="round" stroke-linejoin="round"/>
<path d="M13.3677 45.4625V52.2942" stroke="#013C44" stroke-width="4" stroke-linecap="round" stroke-linejoin="round"/>
<path d="M9.96436 48.8711H16.7847" stroke="#013C44" stroke-width="4" stroke-linecap="round" stroke-linejoin="round"/>
</svg>
